<svg xmlns="http://www.w3.org/2000/svg" version="1.1" xmlns:xlink="http://www.w3.org/1999/xlink" xmlns:svgjs="http://svgjs.dev/svgjs" width="1000" height="1000" viewBox="0 0 1000 1000"><rect width="1000" height="1000" fill="#ffffff"></rect><g transform="matrix(0.7,0,0,0.7,150.1935117273709,325.0381853204476)"><svg viewBox="0 0 110 55" data-background-color="#102e44" preserveAspectRatio="xMidYMid meet" height="500" width="1000" xmlns="http://www.w3.org/2000/svg" xmlns:xlink="http://www.w3.org/1999/xlink"><g id="tight-bounds" transform="matrix(1,0,0,1,-0.030408985729707183,-0.0060005503560489615)"><svg viewBox="0 0 110.06081673702337 55.01199999999999" height="55.01199999999999" width="110.06081673702337"><g><svg viewBox="0 0 110.06081673702337 55.01199999999999" height="55.01199999999999" width="110.06081673702337"><g><svg viewBox="0 0 110.06081673702337 55.01199999999999" height="55.01199999999999" width="110.06081673702337"><g id="textblocktransform"><svg viewBox="0 0 110.06081673702337 55.01199999999999" height="55.01199999999999" width="110.06081673702337" id="textblock"><g><svg viewBox="0 0 110.06081673702337 55.01199999999999" height="55.01199999999999" width="110.06081673702337"><g><svg><g></g><g></g></svg></g><g><svg><g></g><g><svg></svg></g></svg></g><g id="text-0"><svg viewBox="0 0 110.06081673702337 55.01199999999999" height="55.01199999999999" width="110.06081673702337"><g><svg xmlns="http://www.w3.org/2000/svg" xmlns:xlink="http://www.w3.org/1999/xlink" version="1.1" x="0" y="0" viewBox="9.54699993133545 3.2899999618530273 80.906005859375 93.41999816894531" enable-background="new 0 0 100 100" xml:space="preserve" height="55.01199999999999" width="47.64291673702337" class="icon-s-0" data-fill-palette-color="accent" id="s-0"><g fill="#b2fcfb" data-fill-palette-color="accent"><path d="M31.112 39.094v21.812L49.999 71.81l18.89-10.903V39.094l-18.89-10.905L31.112 39.094zM60.925 56.308l-10.926 6.307-10.924-6.307V43.692l10.924-6.308 10.926 6.308V56.308z" fill="#000000" data-fill-palette-color="accent"></path><path d="M49.999 3.29L9.547 26.646v46.709L49.999 96.71l40.454-23.355V26.646L49.999 3.29zM82.19 68.584L49.999 87.169 17.811 68.584v-37.17l32.188-18.585L82.19 31.414V68.584z" fill="#000000" data-fill-palette-color="accent"></path><path d="M20.368 32.89v34.218l29.631 17.108 29.634-17.108V32.89L49.999 15.782 20.368 32.89zM71.446 62.383l-21.447 12.38-21.444-12.38V37.618l21.444-12.382 21.447 12.382V62.383z" fill="#000000" data-fill-palette-color="accent"></path></g></svg></g><g transform="matrix(1,0,0,1,60.63091673702337,0)"><svg width="49.429899999999996" viewBox="1.75 -33.5 30.549999237060547 34" height="55.01199999999999" data-palette-color="#ffffff"><path d="M19.9 0.5L19.9 0.5Q15.9 0.5 12.58-0.75 9.25-2 6.83-4.25 4.4-6.5 3.08-9.47 1.75-12.45 1.75-15.95L1.75-15.95Q1.75-19.8 3.35-23 4.95-26.2 7.65-28.55 10.35-30.9 13.75-32.2 17.15-33.5 20.75-33.5L20.75-33.5Q23.45-33.5 25.23-33.2 27-32.9 28.38-32.35 29.75-31.8 31.2-31.1L31.2-31.1 31.95-21.4 31.05-21.4 25.15-30.2Q24.3-30.6 23.4-30.8 22.5-31 21.2-31L21.2-31Q18.5-31 16.35-29.15 14.2-27.3 12.95-23.9 11.7-20.5 11.7-15.8L11.7-15.8Q11.7-11.65 12.9-8.6 14.1-5.55 16.2-3.9 18.3-2.25 21-2.25L21-2.25Q22.25-2.25 23.45-2.5 24.65-2.75 25.85-3.4L25.85-3.4 31.4-10.95 32.3-10.95 31.45-2.2Q29.55-0.9 26.38-0.2 23.2 0.5 19.9 0.5Z" opacity="1" transform="matrix(1,0,0,1,0,0)" fill="#000000" class="undefined-text-0" data-fill-palette-color="primary"></path></svg></g></svg></g></svg></g></svg></g></svg></g></svg></g><defs></defs></svg><rect width="110.06081673702337" height="55.01199999999999" fill="none" stroke="none" visibility="hidden"></rect></g></svg></g></svg>